<svg width="128" height="128" viewBox="0 0 128 128" fill="none" xmlns="http://www.w3.org/2000/svg" xmlns:xlink="http://www.w3.org/1999/xlink">
<path d="M90.5 18.1006C98.557 22.7523 105.248 29.443 109.899 37.5L110.149 37.9326L109.717 38.1826L101.056 43.1826L100.623 43.4326L91.5303 48.6826L91.0967 48.9326L90.8467 48.5L82.6191 53.25C84.4227 56.3739 85.4084 59.8991 85.4922 63.5H85.5V64.5H85.4922C85.4123 67.9344 84.5094 71.2983 82.8613 74.3125L91.5303 79.3174L91.9629 79.5674L91.7129 80C88.9876 84.7204 85.1032 88.6642 80.4307 91.46L85.4326 100.123L85.6826 100.556L85.25 100.806C78.7893 104.536 71.4602 106.5 64 106.5H63.5V95.9961C58.2221 95.9136 53.0465 94.5266 48.4346 91.959L43.4326 100.623L43.1826 101.056L42.75 100.806C36.2894 97.0756 30.9244 91.7106 27.1943 85.25L26.9443 84.8174L27.377 84.5674L36.04 79.5645C33.4729 74.9528 32.0864 69.7774 32.0039 64.5H21.5V64C21.5 56.7064 23.3777 49.5386 26.9473 43.1846L26.9443 43.1826L27.4443 42.3174L27.4473 42.3184C31.0801 36.1938 36.1937 31.0801 42.3184 27.4473L42.3174 27.4443L43.1826 26.9443L43.1846 26.9473C49.5386 23.3778 56.7065 21.5 64 21.5H64.5V32.0029C69.7774 32.0854 74.9528 33.4729 79.5645 36.04L84.5674 27.377L89.8174 18.2832L90.0674 17.8506L90.5 18.1006ZM64 43.5215C60.4053 43.5215 56.8739 44.4673 53.7607 46.2646C50.6475 48.0621 48.0621 50.6475 46.2646 53.7607L46.0146 54.1934L45.582 53.9434L36.9062 48.9346C34.4264 53.3943 33.0862 58.3978 33.0039 63.5H43.5215V64C43.5215 67.5947 44.4673 71.1261 46.2646 74.2393C48.0621 77.3525 50.6475 79.9379 53.7607 81.7354C56.8739 83.5327 60.4053 84.4785 64 84.4785C67.4279 84.4785 70.7968 83.6159 73.8018 81.9775L68.8174 73.3438L68.5674 72.9102L69 72.6602C70.5201 71.7825 71.7825 70.5201 72.6602 69C73.5378 67.4798 74 65.7554 74 64C74 62.2446 73.5378 60.5202 72.6602 59L72.4102 58.5674L72.8438 58.3174L81.9111 53.0811C80.1706 50.226 77.7731 47.8293 74.918 46.0889L74.6729 46.5146L74.2393 46.2646C71.1261 44.4673 67.5947 43.5215 64 43.5215Z" fill="url(#pattern0_388_2)"/>
<path d="M73.093 69.25C72.1715 70.8462 70.846 72.1717 69.2498 73.0933L63.9998 64L73.093 69.25Z" fill="white" stroke="white" stroke-linejoin="round"/>
<path d="M69.2498 73.0933C67.6536 74.0148 65.8429 74.5 63.9998 74.5L63.9998 64L69.2498 73.0933Z" fill="white" stroke="white" stroke-linejoin="round"/>
<path d="M74.5002 82.1865C71.3078 84.0297 67.6865 85 64.0002 85L64.0002 74.5C65.8434 74.5 67.654 74.0148 69.2502 73.0933L74.5002 82.1865Z" fill="white" stroke="white" stroke-linejoin="round"/>
<path d="M63.9998 74.5C62.1566 74.5 60.346 74.0148 58.7498 73.0933L63.9998 64L63.9998 74.5Z" fill="white" stroke="white" stroke-linejoin="round"/>
<path d="M118.56 95.5001L109.465 90.249C104.857 98.2297 98.2297 104.857 90.249 109.465L95.5001 118.56" stroke="white" stroke-opacity="0.5"/>
<path d="M32.5 118.559L37.7511 109.464C45.7317 114.072 54.7847 116.498 64 116.498" stroke="white" stroke-opacity="0.5"/>
<path d="M9.44043 95.5001L18.5355 90.249" stroke="white" stroke-opacity="0.5"/>
<path d="M9.44043 95.5L18.5355 90.249C13.9279 82.2683 11.5021 73.2153 11.5021 64" stroke="white" stroke-opacity="0.5"/>
<path d="M9.44043 32.5L18.5355 37.7511C23.1432 29.7704 29.7704 23.1432 37.7511 18.5355L32.5 9.44043" stroke="white" stroke-opacity="0.5"/>
<path d="M95.5 9.44043L90.2489 18.5355C82.2683 13.9279 73.2153 11.5021 64 11.5021" stroke="white" stroke-opacity="0.5"/>
<path d="M118.56 32.5L109.465 37.7511" stroke="white" stroke-opacity="0.5"/>
<path d="M118.56 32.5L109.465 37.7511C114.072 45.7317 116.498 54.7847 116.498 64" stroke="white" stroke-opacity="0.5"/>
<path d="M85.0002 100.373C91.3851 96.6863 96.687 91.3843 100.373 84.9995" stroke="white" stroke-opacity="0.5"/>
<path d="M64.0002 116.499L64.0002 105.999C71.3728 105.999 78.6154 104.059 85.0002 100.373" stroke="white" stroke-opacity="0.5"/>
<path d="M43.0002 100.373L37.7502 109.466C45.7313 114.074 54.7846 116.499 64.0002 116.499L64.0002 105.999" stroke="white" stroke-opacity="0.5"/>
<path d="M37.7503 109.466L43.0003 100.373C36.6155 96.6863 31.3135 91.3843 27.6272 84.9995" stroke="white" stroke-opacity="0.5"/>
<path d="M18.5339 90.2495C13.9261 82.2685 11.5002 73.2152 11.5002 63.9995H22.0002" stroke="white" stroke-opacity="0.5"/>
<path d="M11.5002 63.9995H22.0002C22.0002 56.627 23.9409 49.3843 27.6272 42.9995" stroke="white" stroke-opacity="0.5"/>
<path d="M18.5339 37.7495C23.1418 29.7685 29.7693 23.141 37.7503 18.5332L43.0003 27.6265" stroke="white" stroke-opacity="0.5"/>
<path d="M37.7502 18.5332L43.0002 27.6264C49.385 23.9402 56.6277 21.9995 64.0002 21.9995V11.4995" stroke="white" stroke-opacity="0.5"/>
<path d="M90.2502 18.5332C82.2692 13.9253 73.2159 11.4995 64.0002 11.4995V21.9995" stroke="white" stroke-opacity="0.5"/>
<path d="M116.5 63.9995C116.5 54.7838 114.074 45.7305 109.467 37.7495L100.373 42.9995C104.06 49.3843 106 56.627 106 63.9995" stroke="white" stroke-opacity="0.5"/>
<path d="M106 64.0005H95.4997C95.4997 69.5299 94.0442 74.9619 91.2795 79.7505L100.373 85.0005" stroke="white" stroke-opacity="0.5"/>
<path d="M79.7498 91.2803L84.9998 100.374C91.3846 96.6873 96.6866 91.3853 100.373 85.0005L91.2796 79.7505" stroke="white" stroke-opacity="0.5"/>
<path d="M84.9998 100.374C78.615 104.06 71.3723 106 63.9998 106L63.9998 95.5005C69.5292 95.5005 74.9612 94.045 79.7498 91.2803L84.9998 100.374Z" stroke="white" stroke-opacity="0.5"/>
<path d="M63.9998 106V95.5005C58.4704 95.5005 53.0384 94.045 48.2498 91.2803" stroke="white" stroke-opacity="0.5"/>
<path d="M42.9998 100.374C36.615 96.6873 31.313 91.3853 27.6267 85.0005M36.72 79.7505C39.4847 84.5391 43.4612 88.5156 48.2498 91.2803" stroke="white" stroke-opacity="0.5"/>
<path d="M21.9998 64.0005H32.4998C32.4998 69.5299 33.9553 74.9619 36.72 79.7505" stroke="white" stroke-opacity="0.5"/>
<path d="M36.72 48.2505L27.6267 43.0005C23.9404 49.3853 21.9998 56.6279 21.9998 64.0005H32.4998" stroke="white" stroke-opacity="0.5"/>
<path d="M42.9998 27.6274C49.3846 23.9412 56.6272 22.0005 63.9998 22.0005V32.5005" stroke="white" stroke-opacity="0.5"/>
<path d="M100.373 43.0005C104.059 49.3853 106 56.628 106 64.0005L95.4997 64.0005C95.4997 58.4711 94.0442 53.0391 91.2795 48.2505" stroke="white" stroke-opacity="0.5"/>
<path d="M91.2798 79.75C94.0445 74.9614 95.5 69.5294 95.5 64H84.979" stroke="white" stroke-opacity="0.5"/>
<path d="M79.75 91.2798C74.9614 94.0445 69.5294 95.5 64 95.5L64 84.979" stroke="white" stroke-opacity="0.5"/>
<path d="M64 95.5C58.4706 95.5 53.0386 94.0445 48.25 91.2798L53.5105 82.1683C56.6997 84.0096 60.3174 84.979 64 84.979L64 95.5Z" stroke="white" stroke-opacity="0.5"/>
<path d="M45.8317 74.4893L36.7202 79.7498C39.4849 84.5384 43.4614 88.5149 48.25 91.2796L53.5105 82.1681" stroke="white" stroke-opacity="0.5"/>
<path d="M36.7202 79.75L45.8317 74.4895C43.9904 71.3003 43.021 67.6826 43.021 64" stroke="white" stroke-opacity="0.5"/>
<path d="M45.8315 53.5104C47.6728 50.3212 50.3212 47.6728 53.5104 45.8315" stroke="white" stroke-opacity="0.5"/>
<path d="M64 43.021C60.3174 43.021 56.6997 43.9904 53.5105 45.8316" stroke="white" stroke-opacity="0.5"/>
<path d="M91.2798 48.25C94.0445 53.0386 95.5 58.4706 95.5 64L84.979 64C84.979 60.3174 84.0096 56.6997 82.1683 53.5105L91.2798 48.25Z" stroke="white" stroke-opacity="0.5"/>
<path d="M58.7502 73.0928C60.3464 74.0143 62.1571 74.4995 64.0002 74.4995V84.9995" stroke="white" stroke-opacity="0.5"/>
<path d="M58.7503 73.0928C57.1541 72.1712 55.8286 70.8457 54.907 69.2495L45.8137 74.4995" stroke="white" stroke-opacity="0.5"/>
<path d="M58.7502 54.9063L53.5002 45.813" stroke="white" stroke-opacity="0.5"/>
<path d="M73.0935 58.7495C72.1719 57.1533 70.8464 55.8278 69.2502 54.9062" stroke="white" stroke-opacity="0.5"/>
<path d="M63.9998 74.5005C62.1566 74.5005 60.346 74.0153 58.7498 73.0938L63.9998 64.0005" stroke="white" stroke-opacity="0.5"/>
<path d="M73.093 58.7505C72.1715 57.1543 70.846 55.8288 69.2498 54.9072L63.9998 64.0005" stroke="white" stroke-opacity="0.5"/>
<defs>
<pattern id="pattern0_388_2" patternUnits="userSpaceOnUse" patternTransform="matrix(3.744 0 0 7.488 21.5 17.8506)" preserveAspectRatio="none" viewBox="0 0 12.48 24.96" width="1" height="1">
<use xlink:href="#pattern0_388_2_inner" transform="translate(-12.48 0)"/>
<g id="pattern0_388_2_inner">
<path d="M6 3C6 4.65685 4.65685 6 3 6C1.34315 6 0 4.65685 0 3C0 1.34315 1.34315 0 3 0C4.65685 0 6 1.34315 6 3Z" fill="white"/>
</g>
<use xlink:href="#pattern0_388_2_inner" transform="translate(-6.24 12.48)"/>
<use xlink:href="#pattern0_388_2_inner" transform="translate(6.24 12.48)"/>
</pattern></defs>
</svg>
