<svg width="128" height="128" viewBox="0 0 128 128" fill="none" xmlns="http://www.w3.org/2000/svg" xmlns:xlink="http://www.w3.org/1999/xlink">
<path d="M64.0394 63.5001C64.0525 63.5011 64.0654 63.5039 64.0784 63.5059C64.0925 63.5082 64.1066 63.5103 64.1204 63.5138C64.1233 63.5145 64.1263 63.5149 64.1292 63.5157C64.143 63.5194 64.1561 63.5246 64.1693 63.5294C64.1719 63.5303 64.1745 63.5313 64.1771 63.5323C64.1823 63.5343 64.1876 63.536 64.1927 63.5382C64.2076 63.5444 64.2216 63.5521 64.2357 63.5597C64.2402 63.5621 64.2449 63.5639 64.2493 63.5665L73.3431 68.8165C73.5818 68.9547 73.6635 69.2602 73.5257 69.4991C72.6437 71.0268 71.4071 72.3159 69.9251 73.2638L85.682 100.556L85.2493 100.806C78.7886 104.536 71.4595 106.5 63.9993 106.5H63.4993L63.5003 85.0089C63.5003 85.0059 63.4993 85.003 63.4993 85.0001V74.9864C61.7422 74.9064 60.0268 74.4074 58.4993 73.5255C58.3847 73.4591 58.3002 73.3497 58.2659 73.2218C58.2319 73.0939 58.2506 72.9575 58.3167 72.8429L63.5667 63.7491C63.5703 63.743 63.5747 63.7374 63.5784 63.7315L63.5804 63.7266C63.5857 63.7184 63.5911 63.7102 63.597 63.7022C63.6017 63.6959 63.6067 63.6898 63.6117 63.6837C63.6153 63.6792 63.6196 63.6753 63.6234 63.671C63.6273 63.6664 63.631 63.6617 63.6351 63.6573C63.6387 63.6535 63.6421 63.6493 63.6458 63.6456L63.6566 63.6348C63.6598 63.6318 63.6631 63.629 63.6663 63.6261C63.6722 63.6208 63.6788 63.6164 63.6849 63.6114C63.7006 63.5986 63.7165 63.5861 63.7337 63.5753C63.7374 63.573 63.7417 63.5716 63.7454 63.5694C63.752 63.5655 63.7582 63.5613 63.765 63.5577C63.7709 63.5546 63.7765 63.5508 63.7825 63.5479C63.7899 63.5444 63.7975 63.5414 63.805 63.5382C63.8097 63.5362 63.8149 63.5351 63.8197 63.5333C63.836 63.527 63.8523 63.5203 63.8695 63.5157C63.874 63.5145 63.8786 63.5139 63.8831 63.5128C63.8861 63.5121 63.889 63.5115 63.8919 63.5108C63.9412 63.5 63.9908 63.496 64.0394 63.5001Z" fill="url(#pattern0_416_1235)"/>
<path d="M95.5001 118.56L90.249 109.465C98.2297 104.857 104.857 98.2297 109.465 90.249L118.56 95.5001" stroke="white" stroke-opacity="0.5"/>
<path d="M32.5 118.559L37.7511 109.464C45.7317 114.072 54.7847 116.498 64 116.498" stroke="white" stroke-opacity="0.5"/>
<path d="M9.44043 95.5001L18.5355 90.249" stroke="white" stroke-opacity="0.5"/>
<path d="M11.5021 64C11.5021 73.2153 13.9279 82.2683 18.5355 90.249L9.44043 95.5" stroke="white" stroke-opacity="0.5"/>
<path d="M32.5 9.44043L37.7511 18.5355C29.7704 23.1432 23.1432 29.7704 18.5355 37.7511L9.44043 32.5" stroke="white" stroke-opacity="0.5"/>
<path d="M95.5 9.44043L90.2489 18.5355C82.2683 13.9279 73.2153 11.5021 64 11.5021" stroke="white" stroke-opacity="0.5"/>
<path d="M118.56 32.5L109.465 37.7511" stroke="white" stroke-opacity="0.5"/>
<path d="M116.498 64C116.498 54.7847 114.072 45.7317 109.465 37.7511L118.56 32.5" stroke="white" stroke-opacity="0.5"/>
<path d="M85.0002 100.373C91.3851 96.6868 96.687 91.3848 100.373 85" stroke="white" stroke-opacity="0.5"/>
<path d="M64.0002 116.5L64.0002 106C71.3728 106 78.6154 104.059 85.0002 100.373" stroke="white" stroke-opacity="0.5"/>
<path d="M43.0002 100.373L37.7502 109.466C45.7313 114.074 54.7846 116.5 64.0002 116.5L64.0002 106" stroke="white" stroke-opacity="0.5"/>
<path d="M27.6272 85C31.3135 91.3848 36.6155 96.6868 43.0003 100.373L37.7503 109.466" stroke="white" stroke-opacity="0.5"/>
<path d="M18.5339 90.25C13.9261 82.269 11.5002 73.2157 11.5002 64H22.0002" stroke="white" stroke-opacity="0.5"/>
<path d="M27.6272 43C23.9409 49.3848 22.0002 56.6275 22.0002 64H11.5002" stroke="white" stroke-opacity="0.5"/>
<path d="M18.5339 37.7495C23.1418 29.7685 29.7693 23.141 37.7503 18.5332L43.0003 27.6265" stroke="white" stroke-opacity="0.5"/>
<path d="M64.0002 11.5V22C56.6277 22 49.385 23.9407 43.0002 27.6269L37.7502 18.5337" stroke="white" stroke-opacity="0.5"/>
<path d="M90.2502 18.5337C82.2692 13.9258 73.2159 11.5 64.0002 11.5V22" stroke="white" stroke-opacity="0.5"/>
<path d="M116.5 64C116.5 54.7843 114.074 45.731 109.467 37.75L100.373 43C104.06 49.3848 106 56.6275 106 64" stroke="white" stroke-opacity="0.5"/>
<path d="M100.373 85L91.2795 79.75C94.0442 74.9614 95.4997 69.5294 95.4997 64H106" stroke="white" stroke-opacity="0.5"/>
<path d="M79.7498 91.2798L84.9998 100.373C91.3846 96.6868 96.6866 91.3848 100.373 85L91.2796 79.75" stroke="white" stroke-opacity="0.5"/>
<path d="M84.9998 100.373C78.615 104.059 71.3723 106 63.9998 106L63.9998 95.5C69.5292 95.5 74.9612 94.0445 79.7498 91.2798L84.9998 100.373Z" stroke="white" stroke-opacity="0.5"/>
<path d="M48.2498 91.2798C53.0384 94.0445 58.4704 95.5 63.9998 95.5V106" stroke="white" stroke-opacity="0.5"/>
<path d="M42.9998 100.373C36.615 96.6868 31.313 91.3848 27.6267 85M36.72 79.75C39.4847 84.5386 43.4612 88.5151 48.2498 91.2798" stroke="white" stroke-opacity="0.5"/>
<path d="M21.9998 64H32.4998C32.4998 69.5294 33.9553 74.9614 36.72 79.75" stroke="white" stroke-opacity="0.5"/>
<path d="M36.72 48.25L27.6267 43C23.9404 49.3848 21.9998 56.6275 21.9998 64H32.4998" stroke="white" stroke-opacity="0.5"/>
<path d="M42.9998 27.6269C49.3846 23.9407 56.6272 22 63.9998 22V32.5" stroke="white" stroke-opacity="0.5"/>
<path d="M100.373 43C104.059 49.3848 106 56.6275 106 64L95.4997 64C95.4997 58.4706 94.0442 53.0386 91.2795 48.25" stroke="white" stroke-opacity="0.5"/>
<path d="M91.2798 79.75C94.0445 74.9614 95.5 69.5294 95.5 64H84.979" stroke="white" stroke-opacity="0.5"/>
<path d="M79.75 91.2798C74.9614 94.0445 69.5294 95.5 64 95.5L64 84.979" stroke="white" stroke-opacity="0.5"/>
<path d="M64 95.5001C58.4706 95.5001 53.0386 94.0446 48.25 91.2799L53.5105 82.1685C56.6997 84.0097 60.3174 84.9791 64 84.9791L64 95.5001Z" stroke="white" stroke-opacity="0.5"/>
<path d="M45.8317 74.4893L36.7202 79.7498C39.4849 84.5384 43.4614 88.5149 48.25 91.2796L53.5105 82.1681" stroke="white" stroke-opacity="0.5"/>
<path d="M43.021 64C43.021 67.6826 43.9904 71.3003 45.8317 74.4895L36.7202 79.75" stroke="white" stroke-opacity="0.5"/>
<path d="M53.5104 45.8315C50.3212 47.6728 47.6728 50.3212 45.8315 53.5104" stroke="white" stroke-opacity="0.5"/>
<path d="M64 43.021C60.3174 43.021 56.6997 43.9904 53.5105 45.8316" stroke="white" stroke-opacity="0.5"/>
<path d="M91.2799 48.25C94.0446 53.0386 95.5001 58.4706 95.5001 64L84.9791 64C84.9791 60.3174 84.0098 56.6997 82.1685 53.5105L91.2799 48.25Z" stroke="white" stroke-opacity="0.5"/>
<path d="M58.7502 73.0933C60.3464 74.0148 62.1571 74.5 64.0002 74.5V85" stroke="white" stroke-opacity="0.5"/>
<path d="M58.7503 73.0933C57.1541 72.1717 55.8286 70.8462 54.907 69.25L45.8137 74.5" stroke="white" stroke-opacity="0.5"/>
<path d="M58.7502 54.9067L53.5002 45.8135" stroke="white" stroke-opacity="0.5"/>
<path d="M64.0399 63.5014C64.053 63.5024 64.0659 63.5052 64.079 63.5073C64.0931 63.5096 64.1072 63.5116 64.121 63.5151C64.1239 63.5158 64.1269 63.5163 64.1298 63.517C64.1395 63.5196 64.1487 63.5236 64.1581 63.5268C64.167 63.5298 64.1757 63.5331 64.1845 63.5366C64.1873 63.5377 64.1904 63.5383 64.1932 63.5395C64.2109 63.5469 64.2276 63.5556 64.244 63.5649C64.2501 63.5683 64.2566 63.571 64.2626 63.5746L64.2772 63.5834L73.3436 68.8178C73.5821 68.9561 73.6641 69.2616 73.5263 69.5004C72.6443 71.0279 71.4074 72.3162 69.9257 73.2641L74.9335 81.936C74.9349 81.9384 74.9351 81.9414 74.9364 81.9438L79.9315 90.5961L80.1825 91.0297L85.6825 100.555L85.2499 100.805C78.7891 104.535 71.4602 106.499 63.9999 106.499H63.4999V74.9877C61.7427 74.9078 60.0274 74.4086 58.4999 73.5268C58.3852 73.4606 58.3009 73.351 58.2665 73.2231C58.2323 73.0952 58.2512 72.9589 58.3173 72.8442L63.5673 63.7504C63.5693 63.747 63.572 63.744 63.5741 63.7407C63.5759 63.7378 63.5772 63.7347 63.579 63.7319C63.585 63.7224 63.5908 63.7127 63.5975 63.7036C63.6022 63.6972 63.6072 63.6911 63.6122 63.685C63.6158 63.6805 63.6201 63.6766 63.6239 63.6723C63.6279 63.6678 63.6315 63.663 63.6356 63.6586C63.6392 63.6548 63.6426 63.6507 63.6464 63.6469L63.6571 63.6362C63.6606 63.6328 63.6642 63.6296 63.6679 63.6264C63.6729 63.6219 63.6783 63.618 63.6835 63.6137C63.6989 63.6011 63.7144 63.5884 63.7313 63.5776C63.7391 63.5727 63.7478 63.5694 63.7557 63.5649C63.761 63.562 63.766 63.5588 63.7714 63.5561C63.7754 63.554 63.779 63.5512 63.7831 63.5493C63.7904 63.5457 63.798 63.5427 63.8056 63.5395C63.8119 63.5368 63.8186 63.5351 63.8251 63.5327C63.8398 63.5271 63.8545 63.5212 63.87 63.517L63.8856 63.5131C63.8969 63.5105 63.9084 63.5091 63.9198 63.5073C63.9601 63.5008 64.0003 63.4981 64.0399 63.5014Z" stroke="white" stroke-width="2" stroke-miterlimit="16"/>
<defs>
<pattern id="pattern0_416_1235" patternUnits="userSpaceOnUse" patternTransform="matrix(7.632 0 0 15.264 58.2319 63.496)" preserveAspectRatio="none" viewBox="0 0 9.54 19.08" width="1" height="1">
<use xlink:href="#pattern0_416_1235_inner" transform="translate(-9.54 0)"/>
<g id="pattern0_416_1235_inner">
<path d="M6 3C6 4.65685 4.65685 6 3 6C1.34315 6 0 4.65685 0 3C0 1.34315 1.34315 0 3 0C4.65685 0 6 1.34315 6 3Z" fill="white"/>
</g>
<use xlink:href="#pattern0_416_1235_inner" transform="translate(-4.77 9.54)"/>
<use xlink:href="#pattern0_416_1235_inner" transform="translate(4.77 9.54)"/>
</pattern></defs>
</svg>
