<svg width="128" height="128" viewBox="0 0 128 128" fill="none" xmlns="http://www.w3.org/2000/svg" xmlns:xlink="http://www.w3.org/1999/xlink">
<path d="M90.5 18.1006C98.557 22.7523 105.248 29.443 109.899 37.5L110.149 37.9326L109.717 38.1826L101.056 43.1826L100.623 43.4326L91.5303 48.6826L91.0967 48.9326L90.8467 48.5L82.6191 53.25C84.4227 56.3739 85.4084 59.8991 85.4922 63.5H85.5V64.5H85.4922C85.4123 67.9344 84.5094 71.2983 82.8613 74.3125L91.5303 79.3174L91.9629 79.5674L91.7129 80C88.9876 84.7204 85.1032 88.6642 80.4307 91.46L85.4326 100.123L85.6826 100.556L85.25 100.806C78.7893 104.536 71.4602 106.5 64 106.5H63.5V95.9961C58.2221 95.9136 53.0465 94.5266 48.4346 91.959L43.4326 100.623L43.1826 101.056L42.75 100.806C36.2894 97.0756 30.9244 91.7106 27.1943 85.25L26.9443 84.8174L27.377 84.5674L36.04 79.5645C33.4729 74.9528 32.0864 69.7774 32.0039 64.5H21.5V64C21.5 56.7064 23.3777 49.5386 26.9473 43.1846L26.9443 43.1826L27.4443 42.3174L27.4473 42.3184C31.0801 36.1938 36.1937 31.0801 42.3184 27.4473L42.3174 27.4443L43.1826 26.9443L43.1846 26.9473C49.5386 23.3778 56.7065 21.5 64 21.5H64.5V32.0029C69.7774 32.0854 74.9528 33.4729 79.5645 36.04L84.5674 27.377L89.8174 18.2832L90.0674 17.8506L90.5 18.1006ZM64 43.5215C60.4053 43.5215 56.8739 44.4673 53.7607 46.2646C50.6475 48.0621 48.0621 50.6475 46.2646 53.7607L46.0146 54.1934L45.582 53.9434L36.9062 48.9346C34.4264 53.3943 33.0862 58.3978 33.0039 63.5H43.5215V64C43.5215 67.5947 44.4673 71.1261 46.2646 74.2393C48.0621 77.3525 50.6475 79.9379 53.7607 81.7354C56.8739 83.5327 60.4053 84.4785 64 84.4785C67.4279 84.4785 70.7968 83.6159 73.8018 81.9775L68.8174 73.3438L68.5674 72.9102L69 72.6602C70.5201 71.7825 71.7825 70.5201 72.6602 69C73.5378 67.4798 74 65.7554 74 64C74 62.2446 73.5378 60.5202 72.6602 59L72.4102 58.5674L72.8438 58.3174L81.9111 53.0811C80.1706 50.226 77.7731 47.8293 74.918 46.0889L74.6729 46.5146L74.2393 46.2646C71.1261 44.4673 67.5947 43.5215 64 43.5215Z" fill="url(#pattern0_388_2)"/>
<path d="M118.56 95.5001L109.465 90.249C104.857 98.2297 98.2297 104.857 90.249 109.465L95.5001 118.56" stroke="white" stroke-opacity="0.5"/>
<path d="M32.5 118.559L37.7511 109.464C45.7317 114.072 54.7847 116.498 64 116.498" stroke="white" stroke-opacity="0.5"/>
<path d="M9.44043 95.5001L18.5355 90.249" stroke="white" stroke-opacity="0.5"/>
<path d="M9.44043 95.5L18.5355 90.249C13.9279 82.2683 11.5021 73.2153 11.5021 64" stroke="white" stroke-opacity="0.5"/>
<path d="M9.44043 32.5L18.5355 37.7511C23.1432 29.7704 29.7704 23.1432 37.7511 18.5355L32.5 9.44043" stroke="white" stroke-opacity="0.5"/>
<path d="M95.5 9.44043L90.2489 18.5355C82.2683 13.9279 73.2153 11.5021 64 11.5021" stroke="white" stroke-opacity="0.5"/>
<path d="M118.56 32.5L109.465 37.7511" stroke="white" stroke-opacity="0.5"/>
<path d="M118.56 32.5L109.465 37.7511C114.072 45.7317 116.498 54.7847 116.498 64" stroke="white" stroke-opacity="0.5"/>
<path d="M85.0002 100.373C91.3851 96.6863 96.687 91.3843 100.373 84.9995" stroke="white" stroke-opacity="0.5"/>
<path d="M64.0002 116.499L64.0002 105.999C71.3728 105.999 78.6154 104.059 85.0002 100.373" stroke="white" stroke-opacity="0.5"/>
<path d="M43.0002 100.373L37.7502 109.466C45.7313 114.074 54.7846 116.499 64.0002 116.499L64.0002 105.999" stroke="white" stroke-opacity="0.5"/>
<path d="M37.7503 109.466L43.0003 100.373C36.6155 96.6863 31.3135 91.3843 27.6272 84.9995" stroke="white" stroke-opacity="0.5"/>
<path d="M18.5339 90.2495C13.9261 82.2685 11.5002 73.2152 11.5002 63.9995H22.0002" stroke="white" stroke-opacity="0.5"/>
<path d="M11.5002 63.9995H22.0002C22.0002 56.627 23.9409 49.3843 27.6272 42.9995" stroke="white" stroke-opacity="0.5"/>
<path d="M18.5339 37.7495C23.1418 29.7685 29.7693 23.141 37.7503 18.5332L43.0003 27.6265" stroke="white" stroke-opacity="0.5"/>
<path d="M37.7502 18.5332L43.0002 27.6264C49.385 23.9402 56.6277 21.9995 64.0002 21.9995V11.4995" stroke="white" stroke-opacity="0.5"/>
<path d="M90.2502 18.5332C82.2692 13.9253 73.2159 11.4995 64.0002 11.4995V21.9995" stroke="white" stroke-opacity="0.5"/>
<path d="M116.5 63.9995C116.5 54.7838 114.074 45.7305 109.467 37.7495L100.373 42.9995C104.06 49.3843 106 56.627 106 63.9995" stroke="white" stroke-opacity="0.5"/>
<path d="M106 64.0005H95.4997C95.4997 69.5299 94.0442 74.9619 91.2795 79.7505L100.373 85.0005" stroke="white" stroke-opacity="0.5"/>
<path d="M79.7498 91.2803L84.9998 100.374C91.3846 96.6873 96.6866 91.3853 100.373 85.0005L91.2796 79.7505" stroke="white" stroke-opacity="0.5"/>
<path d="M84.9998 100.374C78.615 104.06 71.3723 106 63.9998 106L63.9998 95.5005C69.5292 95.5005 74.9612 94.045 79.7498 91.2803L84.9998 100.374Z" stroke="white" stroke-opacity="0.5"/>
<path d="M63.9998 106V95.5005C58.4704 95.5005 53.0384 94.045 48.2498 91.2803" stroke="white" stroke-opacity="0.5"/>
<path d="M42.9998 100.374C36.615 96.6873 31.313 91.3853 27.6267 85.0005M36.72 79.7505C39.4847 84.5391 43.4612 88.5156 48.2498 91.2803" stroke="white" stroke-opacity="0.5"/>
<path d="M21.9998 64.0005H32.4998C32.4998 69.5299 33.9553 74.9619 36.72 79.7505" stroke="white" stroke-opacity="0.5"/>
<path d="M36.72 48.2505L27.6267 43.0005C23.9404 49.3853 21.9998 56.6279 21.9998 64.0005H32.4998" stroke="white" stroke-opacity="0.5"/>
<path d="M42.9998 27.6274C49.3846 23.9412 56.6272 22.0005 63.9998 22.0005V32.5005" stroke="white" stroke-opacity="0.5"/>
<path d="M100.373 43.0005C104.059 49.3853 106 56.628 106 64.0005L95.4997 64.0005C95.4997 58.4711 94.0442 53.0391 91.2795 48.2505" stroke="white" stroke-opacity="0.5"/>
<path d="M91.2798 79.75C94.0445 74.9614 95.5 69.5294 95.5 64H84.979" stroke="white" stroke-opacity="0.5"/>
<path d="M79.75 91.2798C74.9614 94.0445 69.5294 95.5 64 95.5L64 84.979" stroke="white" stroke-opacity="0.5"/>
<path d="M64 95.5C58.4706 95.5 53.0386 94.0445 48.25 91.2798L53.5105 82.1683C56.6997 84.0096 60.3174 84.979 64 84.979L64 95.5Z" stroke="white" stroke-opacity="0.5"/>
<path d="M45.8317 74.4893L36.7202 79.7498C39.4849 84.5384 43.4614 88.5149 48.25 91.2796L53.5105 82.1681" stroke="white" stroke-opacity="0.5"/>
<path d="M36.7202 79.75L45.8317 74.4895C43.9904 71.3003 43.021 67.6826 43.021 64" stroke="white" stroke-opacity="0.5"/>
<path d="M45.8315 53.5104C47.6728 50.3212 50.3212 47.6728 53.5104 45.8315" stroke="white" stroke-opacity="0.5"/>
<path d="M64 43.021C60.3174 43.021 56.6997 43.9904 53.5105 45.8316" stroke="white" stroke-opacity="0.5"/>
<path d="M91.2798 48.25C94.0445 53.0386 95.5 58.4706 95.5 64L84.979 64C84.979 60.3174 84.0096 56.6997 82.1683 53.5105L91.2798 48.25Z" stroke="white" stroke-opacity="0.5"/>
<path d="M58.7502 73.0928C60.3464 74.0143 62.1571 74.4995 64.0002 74.4995V84.9995" stroke="white" stroke-opacity="0.5"/>
<path d="M58.7503 73.0928C57.1541 72.1712 55.8286 70.8457 54.907 69.2495L45.8137 74.4995" stroke="white" stroke-opacity="0.5"/>
<path d="M58.7502 54.9063L53.5002 45.813" stroke="white" stroke-opacity="0.5"/>
<path d="M63.9998 74.5005C62.1566 74.5005 60.346 74.0153 58.7498 73.0938L63.9998 64.0005" stroke="white" stroke-opacity="0.5"/>
<mask id="path-42-inside-1_388_2" fill="white">
<path d="M64.0398 63.501C64.0529 63.502 64.0658 63.5047 64.0789 63.5068C64.0929 63.5091 64.1071 63.5112 64.1208 63.5146C64.1238 63.5154 64.1267 63.5158 64.1296 63.5166C64.1393 63.5192 64.1485 63.5232 64.158 63.5264C64.1668 63.5293 64.1756 63.5326 64.1843 63.5361C64.1872 63.5373 64.1903 63.5379 64.1931 63.5391C64.2107 63.5465 64.2275 63.5552 64.2439 63.5645C64.25 63.5679 64.2565 63.5705 64.2625 63.5742L64.2771 63.583L73.3435 68.8174C73.5822 68.9556 73.6641 69.2611 73.5261 69.5C72.6442 71.0275 71.4073 72.3158 69.9255 73.2637L74.9333 81.9355C74.9996 82.0503 75.0174 82.1874 74.9832 82.3154C74.9489 82.4434 74.8653 82.5528 74.7507 82.6191C71.4823 84.5062 67.7738 85.499 63.9998 85.499C63.724 85.4987 63.5 85.2757 63.4998 85V74.9873C61.7425 74.9074 60.0273 74.4083 58.4998 73.5264C58.385 73.4601 58.3007 73.3507 58.2664 73.2227C58.2321 73.0947 58.251 72.9585 58.3171 72.8438L63.5671 63.75C63.5691 63.7466 63.5719 63.7436 63.574 63.7402C63.5757 63.7374 63.5771 63.7343 63.5789 63.7314C63.5849 63.722 63.5907 63.7122 63.5974 63.7031C63.6021 63.6968 63.6071 63.6907 63.6121 63.6846C63.6157 63.6801 63.62 63.6762 63.6238 63.6719C63.6277 63.6673 63.6314 63.6626 63.6355 63.6582C63.6391 63.6543 63.6425 63.6502 63.6462 63.6465L63.657 63.6357C63.6605 63.6324 63.6641 63.6292 63.6677 63.626C63.6727 63.6215 63.6782 63.6175 63.6833 63.6133C63.6988 63.6006 63.7143 63.5879 63.7312 63.5771C63.7389 63.5722 63.7476 63.5689 63.7556 63.5645C63.7608 63.5615 63.7659 63.5584 63.7712 63.5557C63.7753 63.5536 63.7789 63.5508 63.783 63.5488C63.7903 63.5453 63.7979 63.5422 63.8054 63.5391C63.8118 63.5364 63.8185 63.5347 63.825 63.5322C63.8397 63.5267 63.8544 63.5208 63.8699 63.5166L63.8855 63.5127C63.8967 63.51 63.9083 63.5087 63.9197 63.5068C63.9599 63.5003 64.0002 63.4977 64.0398 63.501Z"/>
</mask>
<path d="M64.0398 63.501C64.0529 63.502 64.0658 63.5047 64.0789 63.5068C64.0929 63.5091 64.1071 63.5112 64.1208 63.5146C64.1238 63.5154 64.1267 63.5158 64.1296 63.5166C64.1393 63.5192 64.1485 63.5232 64.158 63.5264C64.1668 63.5293 64.1756 63.5326 64.1843 63.5361C64.1872 63.5373 64.1903 63.5379 64.1931 63.5391C64.2107 63.5465 64.2275 63.5552 64.2439 63.5645C64.25 63.5679 64.2565 63.5705 64.2625 63.5742L64.2771 63.583L73.3435 68.8174C73.5822 68.9556 73.6641 69.2611 73.5261 69.5C72.6442 71.0275 71.4073 72.3158 69.9255 73.2637L74.9333 81.9355C74.9996 82.0503 75.0174 82.1874 74.9832 82.3154C74.9489 82.4434 74.8653 82.5528 74.7507 82.6191C71.4823 84.5062 67.7738 85.499 63.9998 85.499C63.724 85.4987 63.5 85.2757 63.4998 85V74.9873C61.7425 74.9074 60.0273 74.4083 58.4998 73.5264C58.385 73.4601 58.3007 73.3507 58.2664 73.2227C58.2321 73.0947 58.251 72.9585 58.3171 72.8438L63.5671 63.75C63.5691 63.7466 63.5719 63.7436 63.574 63.7402C63.5757 63.7374 63.5771 63.7343 63.5789 63.7314C63.5849 63.722 63.5907 63.7122 63.5974 63.7031C63.6021 63.6968 63.6071 63.6907 63.6121 63.6846C63.6157 63.6801 63.62 63.6762 63.6238 63.6719C63.6277 63.6673 63.6314 63.6626 63.6355 63.6582C63.6391 63.6543 63.6425 63.6502 63.6462 63.6465L63.657 63.6357C63.6605 63.6324 63.6641 63.6292 63.6677 63.626C63.6727 63.6215 63.6782 63.6175 63.6833 63.6133C63.6988 63.6006 63.7143 63.5879 63.7312 63.5771C63.7389 63.5722 63.7476 63.5689 63.7556 63.5645C63.7608 63.5615 63.7659 63.5584 63.7712 63.5557C63.7753 63.5536 63.7789 63.5508 63.783 63.5488C63.7903 63.5453 63.7979 63.5422 63.8054 63.5391C63.8118 63.5364 63.8185 63.5347 63.825 63.5322C63.8397 63.5267 63.8544 63.5208 63.8699 63.5166L63.8855 63.5127C63.8967 63.51 63.9083 63.5087 63.9197 63.5068C63.9599 63.5003 64.0002 63.4977 64.0398 63.501Z" fill="white"/>
<path d="M64.0398 63.501L63.9576 64.4976L63.961 64.4979L64.0398 63.501ZM64.0789 63.5068L64.2397 62.5198L64.2366 62.5193L64.0789 63.5068ZM64.1208 63.5146L63.8764 64.4843L63.8794 64.4851L64.1208 63.5146ZM64.1296 63.5166L64.3892 62.5509L64.3885 62.5507L64.1296 63.5166ZM64.158 63.5264L64.4752 62.578L64.4747 62.5778L64.158 63.5264ZM64.1843 63.5361L64.5559 62.6077L64.5545 62.6072L64.1843 63.5361ZM64.1931 63.5391L63.8045 64.4605L63.8062 64.4612L64.1931 63.5391ZM64.2439 63.5645L64.734 62.6928L64.7336 62.6926L64.2439 63.5645ZM64.2625 63.5742L63.7363 64.4247L63.748 64.4317L64.2625 63.5742ZM64.2771 63.583L63.7626 64.4405C63.7674 64.4434 63.7722 64.4462 63.7771 64.449L64.2771 63.583ZM73.3435 68.8174L73.8447 67.952L73.8435 67.9514L73.3435 68.8174ZM73.5261 69.5L74.3921 70L74.3922 69.9999L73.5261 69.5ZM69.9255 73.2637L69.3867 72.4213C68.9363 72.7094 68.7922 73.3008 69.0596 73.7638L69.9255 73.2637ZM74.9333 81.9355L75.7994 81.4355L75.7993 81.4355L74.9333 81.9355ZM74.9832 82.3154L75.9491 82.5742L75.9492 82.5736L74.9832 82.3154ZM74.7507 82.6191L75.2507 83.4852L75.2516 83.4846L74.7507 82.6191ZM63.9998 85.499L63.9988 86.499H63.9998L63.9998 85.499ZM63.4998 85H62.4998L62.4998 85.001L63.4998 85ZM63.4998 74.9873H64.4998C64.4998 74.4527 64.0793 74.0126 63.5452 73.9883L63.4998 74.9873ZM58.4998 73.5264L57.9998 74.3924L57.9998 74.3924L58.4998 73.5264ZM58.2664 73.2227L57.3004 73.4812L57.3005 73.4818L58.2664 73.2227ZM58.3171 72.8438L57.4511 72.3438L57.4507 72.3444L58.3171 72.8438ZM63.5671 63.75L62.7013 63.2497L62.7011 63.25L63.5671 63.75ZM63.574 63.7402L64.4278 64.2608L64.4281 64.2603L63.574 63.7402ZM63.5789 63.7314L62.7357 63.1938L62.7354 63.1943L63.5789 63.7314ZM63.5974 63.7031L64.4021 64.2968L64.4028 64.2959L63.5974 63.7031ZM63.6121 63.6846L62.8358 63.0541L62.8355 63.0546L63.6121 63.6846ZM63.6238 63.6719L64.3778 64.3288L64.3782 64.3282L63.6238 63.6719ZM63.6355 63.6582L62.9062 62.974L62.9051 62.9751L63.6355 63.6582ZM63.6462 63.6465L62.9391 62.9394L62.9389 62.9396L63.6462 63.6465ZM63.657 63.6357L62.9704 62.9087C62.9635 62.9152 62.9566 62.9219 62.9499 62.9286L63.657 63.6357ZM63.6677 63.626L63.0033 62.8787L63.0025 62.8793L63.6677 63.626ZM63.6833 63.6133L64.3172 64.3867L64.3179 64.3861L63.6833 63.6133ZM63.7312 63.5771L63.1941 62.7336L63.194 62.7337L63.7312 63.5771ZM63.7556 63.5645L63.2658 62.6926L63.2655 62.6928L63.7556 63.5645ZM63.7712 63.5557L63.3144 62.6661L63.3133 62.6667L63.7712 63.5557ZM63.783 63.5488L64.2154 64.4505L64.2165 64.4499L63.783 63.5488ZM63.8054 63.5391L64.1941 64.4604L64.1957 64.4598L63.8054 63.5391ZM63.825 63.5322L63.4749 62.5955L63.4729 62.5962L63.825 63.5322ZM63.8699 63.5166L63.6273 62.5465C63.6216 62.5479 63.6159 62.5494 63.6103 62.5509L63.8699 63.5166ZM63.8855 63.5127L63.6548 62.5396L63.643 62.5426L63.8855 63.5127ZM63.9197 63.5068L63.7601 62.5197L63.757 62.5202L63.9197 63.5068ZM64.0398 63.501L63.961 64.4979C63.9427 64.4964 63.9277 64.4946 63.9172 64.4932C63.9067 64.4918 63.899 64.4906 63.8961 64.4901C63.8941 64.4898 63.8922 64.4894 63.8976 64.4904C63.901 64.491 63.9103 64.4926 63.9212 64.4943L64.0789 63.5068L64.2366 62.5193C64.2408 62.52 64.2436 62.5205 64.2406 62.52C64.2395 62.5198 64.231 62.5183 64.2225 62.5169C64.2051 62.514 64.1665 62.5079 64.1186 62.5041L64.0398 63.501ZM64.0789 63.5068L63.9181 64.4938C63.9212 64.4943 63.924 64.4948 63.9259 64.4951C63.9281 64.4954 63.929 64.4956 63.93 64.4957C63.9319 64.496 63.9302 64.4958 63.927 64.4952C63.921 64.4942 63.9019 64.4908 63.8764 64.4843L64.1208 63.5146L64.3653 62.545C64.326 62.5351 64.2929 62.5289 64.2729 62.5254C64.2628 62.5236 64.254 62.5222 64.2488 62.5213C64.24 62.5199 64.2436 62.5205 64.2397 62.5198L64.0789 63.5068ZM64.1208 63.5146L63.8794 64.4851C63.8949 64.4889 63.9075 64.4917 63.9147 64.4932C63.9184 64.494 63.9214 64.4946 63.923 64.4949C63.9238 64.4951 63.9245 64.4952 63.9248 64.4953C63.9253 64.4954 63.925 64.4954 63.925 64.4954C63.9248 64.4953 63.9231 64.495 63.9208 64.4945C63.9184 64.494 63.9148 64.4932 63.9103 64.4922C63.9015 64.4903 63.8877 64.4871 63.8708 64.4825L64.1296 63.5166L64.3885 62.5507C64.3701 62.5458 64.3548 62.5422 64.3446 62.5399C64.3348 62.5378 64.3269 62.5361 64.3255 62.5359C64.3235 62.5354 64.3252 62.5358 64.3253 62.5358C64.3262 62.536 64.3284 62.5365 64.3314 62.5371C64.3372 62.5383 64.3483 62.5407 64.3623 62.5442L64.1208 63.5146ZM64.1296 63.5166L63.8701 64.4823C63.849 64.4767 63.8319 64.4712 63.8203 64.4674C63.8091 64.4636 63.801 64.4606 63.7992 64.46C63.7983 64.4596 63.7977 64.4594 63.7991 64.46C63.7999 64.4603 63.8029 64.4614 63.806 64.4625C63.8124 64.4649 63.8253 64.4696 63.8413 64.4749L64.158 63.5264L64.4747 62.5778C64.4859 62.5816 64.4941 62.5846 64.4958 62.5852C64.4966 62.5855 64.4972 62.5858 64.4957 62.5852C64.4948 62.5849 64.4919 62.5838 64.4886 62.5826C64.4775 62.5785 64.4387 62.5642 64.3892 62.5509L64.1296 63.5166ZM64.158 63.5264L63.8407 64.4747C63.8255 64.4696 63.8154 64.4656 63.8142 64.4651L64.1843 63.5361L64.5545 62.6072C64.5358 62.5997 64.5082 62.5891 64.4752 62.578L64.158 63.5264ZM64.1843 63.5361L63.8127 64.4645C63.843 64.4766 63.868 64.485 63.8827 64.4896C63.8902 64.492 63.8964 64.4939 63.8999 64.495C63.9017 64.4955 63.9031 64.4959 63.9039 64.4962C63.9043 64.4963 63.9055 64.4966 63.9049 64.4964C63.9048 64.4964 63.9039 64.4962 63.9028 64.4958C63.9017 64.4955 63.8999 64.495 63.8977 64.4943C63.8935 64.493 63.8867 64.4909 63.8784 64.4882C63.8622 64.4828 63.836 64.4738 63.8045 64.4605L64.1931 63.5391L64.5817 62.6177C64.5488 62.6038 64.5211 62.5942 64.5035 62.5883C64.4944 62.5854 64.487 62.5831 64.482 62.5815C64.4772 62.5801 64.4733 62.5789 64.4726 62.5787C64.4707 62.5782 64.4732 62.5789 64.4754 62.5795C64.4781 62.5804 64.4835 62.582 64.4903 62.5842C64.5035 62.5884 64.5271 62.5962 64.5559 62.6077L64.1843 63.5361ZM64.1931 63.5391L63.8062 64.4612C63.7892 64.454 63.776 64.4477 63.7675 64.4434C63.7632 64.4412 63.7599 64.4394 63.7577 64.4383C63.7555 64.4371 63.7542 64.4364 63.7542 64.4363L64.2439 63.5645L64.7336 62.6926C64.702 62.6748 64.6479 62.6454 64.5801 62.617L64.1931 63.5391ZM64.2439 63.5645L63.7537 64.4361C63.7729 64.4469 63.7887 64.455 63.7974 64.4594C63.8019 64.4616 63.8056 64.4635 63.8073 64.4643C63.8082 64.4647 63.809 64.4652 63.8092 64.4653C63.8096 64.4654 63.8094 64.4654 63.8091 64.4652C63.8085 64.4649 63.806 64.4637 63.8027 64.462C63.7993 64.4603 63.7944 64.4577 63.7883 64.4545C63.7764 64.4482 63.7582 64.4381 63.7364 64.4247L64.2625 63.5742L64.7885 62.7238C64.7638 62.7085 64.7425 62.6967 64.7275 62.6887C64.713 62.681 64.7012 62.6752 64.6974 62.6733C64.6963 62.6727 64.6953 62.6723 64.6949 62.6721C64.6943 62.6718 64.6944 62.6718 64.6944 62.6718C64.6946 62.6719 64.6967 62.673 64.6996 62.6744C64.7052 62.6773 64.7179 62.6838 64.734 62.6928L64.2439 63.5645ZM64.2625 63.5742L63.748 64.4317L63.7626 64.4405L64.2771 63.583L64.7916 62.7255L64.7769 62.7167L64.2625 63.5742ZM64.2771 63.583L63.7771 64.449L72.8435 69.6834L73.3435 68.8174L73.8435 67.9514L64.7771 62.717L64.2771 63.583ZM73.3435 68.8174L72.8424 69.6827C72.6042 69.5448 72.5218 69.2396 72.6601 69.0001L73.5261 69.5L74.3922 69.9999C74.8063 69.2825 74.5602 68.3664 73.8447 67.952L73.3435 68.8174ZM73.5261 69.5L72.6601 69C71.859 70.3876 70.7348 71.5589 69.3867 72.4213L69.9255 73.2637L70.4644 74.1061C72.0798 73.0727 73.4294 71.6674 74.3921 70L73.5261 69.5ZM69.9255 73.2637L69.0596 73.7638L74.0674 82.4356L74.9333 81.9355L75.7993 81.4355L70.7915 72.7636L69.9255 73.2637ZM74.9333 81.9355L74.0673 82.4356C74.0002 82.3192 73.9833 82.1834 74.0171 82.0572L74.9832 82.3154L75.9492 82.5736C76.0514 82.1914 75.9991 81.7814 75.7994 81.4355L74.9333 81.9355ZM74.9832 82.3154L74.0172 82.0566C74.0511 81.9303 74.1338 81.8208 74.2498 81.7536L74.7507 82.6191L75.2516 83.4846C75.5969 83.2848 75.8467 82.9564 75.9491 82.5742L74.9832 82.3154ZM74.7507 82.6191L74.2507 81.7531C71.1345 83.5523 67.5984 84.499 63.9998 84.499L63.9998 85.499L63.9998 86.499C67.9492 86.499 71.8302 85.46 75.2507 83.4852L74.7507 82.6191ZM63.9998 85.499L64.0008 84.499C64.2739 84.4993 64.4995 84.7207 64.4998 84.999L63.4998 85L62.4998 85.001C62.5006 85.8308 63.1741 86.4982 63.9988 86.499L63.9998 85.499ZM63.4998 85H64.4998V74.9873H63.4998H62.4998V85H63.4998ZM63.4998 74.9873L63.5452 73.9883C61.9472 73.9156 60.388 73.4618 58.9997 72.6603L58.4998 73.5264L57.9998 74.3924C59.6667 75.3548 61.5379 75.8991 63.4543 75.9863L63.4998 74.9873ZM58.4998 73.5264L58.9997 72.6603C59.1135 72.726 59.1975 72.8343 59.2322 72.9635L58.2664 73.2227L57.3005 73.4818C57.4039 73.867 57.6564 74.1942 57.9998 74.3924L58.4998 73.5264ZM58.2664 73.2227L59.2324 72.9641C59.268 73.0973 59.2469 73.2331 59.1835 73.3431L58.3171 72.8438L57.4507 72.3444C57.2551 72.6839 57.1962 73.0922 57.3004 73.4812L58.2664 73.2227ZM58.3171 72.8438L59.1832 73.3437L64.4332 64.25L63.5671 63.75L62.7011 63.25L57.4511 72.3438L58.3171 72.8438ZM63.5671 63.75L64.433 64.2503C64.4141 64.283 64.3969 64.3083 64.386 64.3237C64.3805 64.3316 64.3758 64.3379 64.3729 64.3419C64.3701 64.3457 64.3679 64.3486 64.3678 64.3487C64.3678 64.3487 64.3677 64.3488 64.3679 64.3486C64.3679 64.3485 64.3682 64.3482 64.3684 64.3479C64.3689 64.3472 64.3699 64.3459 64.3711 64.3443C64.3735 64.3412 64.3776 64.3356 64.3827 64.3286C64.3878 64.3216 64.3944 64.3122 64.4019 64.3011C64.4095 64.2899 64.4183 64.2764 64.4278 64.2608L63.574 63.7402L62.7202 63.2196C62.7378 63.1908 62.7533 63.1688 62.7619 63.1568C62.7664 63.1506 62.77 63.1458 62.7717 63.1435C62.773 63.1418 62.7747 63.1395 62.7732 63.1415C62.7726 63.1424 62.7698 63.146 62.7664 63.1506C62.7628 63.1554 62.7576 63.1626 62.7515 63.1713C62.7394 63.1883 62.7212 63.2153 62.7013 63.2497L63.5671 63.75ZM63.574 63.7402L64.4281 64.2603C64.4403 64.2402 64.4495 64.2236 64.4548 64.2138C64.4575 64.2089 64.4596 64.2048 64.4608 64.2026C64.4614 64.2014 64.4619 64.2005 64.4621 64.2C64.4623 64.1998 64.4624 64.1995 64.4624 64.1995C64.4625 64.1994 64.4624 64.1994 64.4624 64.1995C64.4623 64.1996 64.4612 64.2018 64.4596 64.2047C64.458 64.2078 64.4555 64.2124 64.4523 64.2182C64.4461 64.2294 64.436 64.2472 64.4224 64.2686L63.5789 63.7314L62.7354 63.1943C62.7209 63.2171 62.7099 63.2363 62.7028 63.249C62.6992 63.2555 62.6963 63.2609 62.6943 63.2647C62.6924 63.2683 62.6909 63.2713 62.6904 63.2721C62.6894 63.274 62.6903 63.2722 62.6908 63.2713C62.6916 63.2698 62.6934 63.2665 62.6957 63.2623C62.7001 63.254 62.7085 63.2388 62.7199 63.2201L63.574 63.7402ZM63.5789 63.7314L64.422 64.2691C64.4259 64.2629 64.4296 64.2572 64.4305 64.2556C64.4322 64.253 64.4315 64.2541 64.4303 64.256C64.4279 64.2598 64.4175 64.2759 64.4021 64.2968L63.5974 63.7031L62.7927 63.1094C62.7706 63.1394 62.754 63.165 62.7455 63.1783C62.7412 63.1849 62.7375 63.1909 62.7362 63.193C62.7342 63.1962 62.7348 63.1952 62.7357 63.1938L63.5789 63.7314ZM63.5974 63.7031L64.4028 64.2959C64.3947 64.3069 64.3884 64.3148 64.3863 64.3174C64.3852 64.3188 64.3846 64.3196 64.3851 64.319C64.3853 64.3187 64.3856 64.3183 64.3862 64.3175C64.3868 64.3169 64.3877 64.3157 64.3886 64.3146L63.6121 63.6846L62.8355 63.0546C62.8352 63.0549 62.8348 63.0553 62.8341 63.0562C62.8335 63.0569 62.8326 63.0581 62.8316 63.0593C62.8296 63.0618 62.8265 63.0656 62.8229 63.0701C62.8159 63.0789 62.8048 63.093 62.792 63.1104L63.5974 63.7031ZM63.6121 63.6846L64.3883 64.315C64.3731 64.3337 64.3602 64.3482 64.3517 64.3574C64.3474 64.3621 64.3438 64.3659 64.3414 64.3685C64.339 64.3709 64.3373 64.3728 64.3369 64.3731C64.3367 64.3733 64.3366 64.3735 64.3369 64.3732C64.3371 64.373 64.3377 64.3723 64.3384 64.3716C64.3397 64.3702 64.3425 64.3674 64.3458 64.3639C64.3523 64.357 64.3639 64.3446 64.3778 64.3288L63.6238 63.6719L62.8698 63.015C62.8817 63.0013 62.8914 62.991 62.8959 62.9862C62.8983 62.9838 62.9 62.982 62.9004 62.9816C62.9005 62.9814 62.9007 62.9813 62.9003 62.9816C62.9002 62.9818 62.8995 62.9825 62.8988 62.9832C62.8965 62.9856 62.8882 62.9942 62.8781 63.0052C62.8677 63.0165 62.8528 63.0332 62.8358 63.0541L63.6121 63.6846ZM63.6238 63.6719L64.3782 64.3282C64.3853 64.3201 64.391 64.3134 64.3938 64.3099C64.3953 64.3082 64.3965 64.3067 64.397 64.3062C64.3976 64.3054 64.3974 64.3057 64.397 64.3061C64.3963 64.3069 64.3928 64.3111 64.3879 64.3168C64.3829 64.3225 64.3754 64.3311 64.3659 64.3413L63.6355 63.6582L62.9051 62.9751C62.8832 62.9987 62.8665 63.0186 62.8621 63.0239C62.8608 63.0254 62.8596 63.0269 62.8593 63.0272C62.8588 63.0279 62.8591 63.0275 62.8596 63.0269C62.8605 63.0258 62.8642 63.0214 62.8693 63.0155L63.6238 63.6719ZM63.6355 63.6582L64.3648 64.3424C64.373 64.3337 64.3795 64.3264 64.383 64.3226C64.3847 64.3206 64.3862 64.319 64.3868 64.3183C64.3877 64.3172 64.3874 64.3177 64.3872 64.3179C64.3866 64.3185 64.3828 64.3227 64.3776 64.3284C64.3722 64.3342 64.364 64.343 64.3535 64.3534L63.6462 63.6465L62.9389 62.9396C62.9266 62.9519 62.9166 62.9625 62.9094 62.9703C62.9024 62.9779 62.8968 62.9842 62.8945 62.9868C62.8938 62.9875 62.8933 62.9881 62.8929 62.9885C62.8927 62.9887 62.8926 62.9889 62.8925 62.989C62.8923 62.9892 62.8923 62.9892 62.8922 62.9893C62.8919 62.9896 62.8925 62.9889 62.8934 62.988C62.8951 62.9861 62.8998 62.9808 62.9062 62.974L63.6355 63.6582ZM63.6462 63.6465L64.3533 64.3536L64.3641 64.3428L63.657 63.6357L62.9499 62.9286L62.9391 62.9394L63.6462 63.6465ZM63.657 63.6357L64.3436 64.3628C64.3387 64.3674 64.335 64.3708 64.3333 64.3723C64.3319 64.3736 64.331 64.3743 64.3329 64.3726L63.6677 63.626L63.0025 62.8793C62.9999 62.8817 62.9859 62.894 62.9704 62.9087L63.657 63.6357ZM63.6677 63.626L64.3322 64.3733C64.322 64.3824 64.3134 64.3896 64.3076 64.3944C64.3019 64.3991 64.2976 64.4025 64.2966 64.4033C64.296 64.4037 64.2957 64.4039 64.2964 64.4034C64.2967 64.4032 64.2982 64.402 64.2998 64.4007C64.3029 64.3983 64.3094 64.3931 64.3172 64.3867L63.6833 63.6133L63.0495 62.8398C63.0547 62.8356 63.0586 62.8325 63.0591 62.8321C63.0593 62.8319 63.0595 62.8318 63.0585 62.8325C63.0579 62.8331 63.0562 62.8343 63.0544 62.8358C63.048 62.8408 63.0275 62.8571 63.0033 62.8787L63.6677 63.626ZM63.6833 63.6133L64.3179 64.3861C64.3271 64.3786 64.3233 64.3819 64.3171 64.3866C64.3097 64.3923 64.2926 64.4052 64.2684 64.4206L63.7312 63.5771L63.194 62.7337C63.1182 62.782 63.0576 62.8332 63.0488 62.8404L63.6833 63.6133ZM63.7312 63.5771L64.2683 64.4207C64.2414 64.4378 64.2187 64.4503 64.204 64.4581C64.1964 64.4621 64.1902 64.4652 64.186 64.4673C64.1818 64.4694 64.1788 64.4709 64.1779 64.4712C64.1775 64.4715 64.1773 64.4716 64.1777 64.4714C64.1779 64.4713 64.179 64.4708 64.18 64.4703C64.1821 64.4693 64.1866 64.4671 64.192 64.4644C64.2027 64.4591 64.2222 64.4493 64.2458 64.4361L63.7556 63.5645L63.2655 62.6928C63.285 62.6818 63.3005 62.6741 63.307 62.6709C63.3104 62.6692 63.3128 62.668 63.3129 62.668C63.3151 62.6669 63.3098 62.6695 63.3087 62.67C63.3036 62.6725 63.2886 62.6797 63.2704 62.6894C63.2515 62.6993 63.2249 62.714 63.1941 62.7336L63.7312 63.5771ZM63.7556 63.5645L64.2454 64.4363C64.2519 64.4326 64.2573 64.4296 64.2597 64.4282C64.2607 64.4275 64.2622 64.4267 64.2622 64.4267C64.2627 64.4264 64.2624 64.4266 64.2618 64.4269C64.2607 64.4276 64.2569 64.4298 64.2517 64.4326C64.2464 64.4356 64.2387 64.4398 64.2292 64.4446L63.7712 63.5557L63.3133 62.6667C63.29 62.6787 63.2717 62.6892 63.265 62.693C63.2628 62.6943 63.2575 62.6974 63.2593 62.6963C63.2593 62.6963 63.26 62.6959 63.2611 62.6953C63.2621 62.6947 63.2638 62.6938 63.2658 62.6926L63.7556 63.5645ZM63.7712 63.5557L64.228 64.4452C64.2563 64.4307 64.2784 64.4177 64.291 64.4101C64.2975 64.4062 64.3027 64.4029 64.3056 64.4011C64.3071 64.4002 64.3083 64.3994 64.3089 64.3991C64.3092 64.3989 64.3095 64.3987 64.3096 64.3986C64.3097 64.3986 64.3096 64.3986 64.3095 64.3987C64.3094 64.3988 64.3066 64.4005 64.3028 64.4028C64.2989 64.4052 64.2929 64.4089 64.2853 64.4134C64.2704 64.4221 64.2463 64.4357 64.2154 64.4505L63.783 63.5488L63.3505 62.6472C63.3176 62.6629 63.2915 62.6776 63.2747 62.6875C63.2661 62.6925 63.2591 62.6968 63.2542 62.6998C63.2495 62.7027 63.2458 62.705 63.2446 62.7057C63.2423 62.7072 63.2445 62.7058 63.2456 62.7051C63.2476 62.7039 63.2518 62.7013 63.2573 62.6979C63.2681 62.6914 63.2882 62.6796 63.3144 62.6661L63.7712 63.5557ZM63.783 63.5488L64.2165 64.4499C64.2012 64.4573 64.1896 64.4623 64.1866 64.4636C64.185 64.4643 64.1841 64.4646 64.1856 64.464C64.1862 64.4637 64.1904 64.462 64.1941 64.4604L63.8054 63.5391L63.4167 62.6177C63.417 62.6176 63.417 62.6176 63.4165 62.6178C63.4155 62.6182 63.4156 62.6182 63.4139 62.6189C63.4117 62.6198 63.407 62.6218 63.4016 62.624C63.3911 62.6286 63.3721 62.6368 63.3494 62.6477L63.783 63.5488ZM63.8054 63.5391L64.1957 64.4598C64.1743 64.4688 64.1567 64.4754 64.1451 64.4795C64.1393 64.4815 64.1345 64.4832 64.1311 64.4843C64.1279 64.4854 64.1255 64.4862 64.1249 64.4864C64.1245 64.4865 64.1243 64.4866 64.1246 64.4865C64.1247 64.4864 64.1256 64.4861 64.1263 64.4859C64.1279 64.4854 64.1314 64.4843 64.1355 64.4829C64.1437 64.4802 64.1587 64.4751 64.177 64.4682L63.825 63.5322L63.4729 62.5962C63.488 62.5906 63.4997 62.5866 63.5046 62.585C63.5059 62.5846 63.507 62.5842 63.5077 62.584C63.5084 62.5838 63.5089 62.5836 63.5089 62.5836C63.5103 62.5831 63.5066 62.5843 63.5054 62.5847C63.5013 62.586 63.4897 62.5899 63.4753 62.5949C63.4606 62.6002 63.4397 62.608 63.4152 62.6184L63.8054 63.5391ZM63.825 63.5322L64.175 64.4689C64.1813 64.4666 64.1896 64.4634 64.19 64.4633C64.1925 64.4623 64.1908 64.463 64.1874 64.4642C64.1811 64.4665 64.1595 64.4742 64.1295 64.4823L63.8699 63.5166L63.6103 62.5509C63.5648 62.5631 63.5281 62.5759 63.5069 62.5836C63.4961 62.5875 63.4869 62.5909 63.482 62.5928C63.4807 62.5933 63.4795 62.5937 63.4786 62.5941C63.4776 62.5945 63.4769 62.5947 63.4762 62.595C63.4749 62.5955 63.4747 62.5956 63.4749 62.5955L63.825 63.5322ZM63.8699 63.5166L64.1124 64.4867L64.128 64.4828L63.8855 63.5127L63.643 62.5426L63.6273 62.5465L63.8699 63.5166ZM63.8855 63.5127L64.1162 64.4857C64.0998 64.4896 64.0861 64.4923 64.0765 64.4941C64.067 64.4959 64.06 64.497 64.0575 64.4974C64.0562 64.4976 64.0555 64.4977 64.0559 64.4976C64.0571 64.4975 64.0566 64.4975 64.0595 64.4971C64.063 64.4966 64.0719 64.4952 64.0824 64.4935L63.9197 63.5068L63.757 62.5202C63.7617 62.5194 63.7649 62.5189 63.7627 62.5192C63.7625 62.5193 63.7547 62.5204 63.7475 62.5216C63.7324 62.5239 63.6974 62.5296 63.6548 62.5397L63.8855 63.5127ZM63.9197 63.5068L64.0793 64.494C64.059 64.4973 64.0161 64.5024 63.9576 64.4976L64.0398 63.501L64.122 62.5044C63.9842 62.493 63.8609 62.5034 63.7601 62.5197L63.9197 63.5068Z" fill="#141E0D" mask="url(#path-42-inside-1_388_2)"/>
<defs>
<pattern id="pattern0_388_2" patternUnits="userSpaceOnUse" patternTransform="matrix(3.744 0 0 7.488 21.5 17.8506)" preserveAspectRatio="none" viewBox="0 0 12.48 24.96" width="1" height="1">
<use xlink:href="#pattern0_388_2_inner" transform="translate(-12.48 0)"/>
<g id="pattern0_388_2_inner">
<path d="M6 3C6 4.65685 4.65685 6 3 6C1.34315 6 0 4.65685 0 3C0 1.34315 1.34315 0 3 0C4.65685 0 6 1.34315 6 3Z" fill="white"/>
</g>
<use xlink:href="#pattern0_388_2_inner" transform="translate(-6.24 12.48)"/>
<use xlink:href="#pattern0_388_2_inner" transform="translate(6.24 12.48)"/>
</pattern></defs>
</svg>
