<svg width="128" height="128" viewBox="0 0 128 128" fill="none" xmlns="http://www.w3.org/2000/svg" xmlns:xlink="http://www.w3.org/1999/xlink">
<g clip-path="url(#clip0_393_409)">
<path d="M74.922 81.9185L80.1832 91.0306L80.4328 91.4634L80 91.7131C75.2796 94.4384 69.9438 95.9116 64.4993 95.9966L64.4996 106L64.4998 106.5L64.0001 106.5C56.5399 106.5 49.2107 104.536 42.7499 100.806L42.3169 100.556L47.5689 91.4597C43.0393 88.7494 39.2506 84.9603 36.5404 80.4307L27.8765 85.4331L27.4437 85.6827L27.1941 85.2499C23.464 78.7892 21.5003 71.4606 21.5003 64.0005L21.5001 63.5008L21.9997 63.5006L32.4993 63.5004L32.9998 63.5007L33 64.0003C33 69.2752 34.3464 74.4597 36.9072 79.0649L45.5815 74.0562L46.0143 73.8066L46.2648 74.2399C48.0622 77.353 50.6475 79.9378 53.7607 81.7352C56.8738 83.5325 60.405 84.4791 63.9997 84.4791C67.5945 84.4791 71.1264 83.5328 74.2396 81.7354L74.6724 81.4857L74.922 81.9185ZM109.899 37.5002C114.551 45.5572 117 54.6968 117 64.0003L117 64.4999L116.501 64.5001L106.5 64.4997L106 64.4999L95.5005 64.5001L95 64.4999L94.9998 64.0002C94.9998 58.7249 93.6535 53.5398 91.0923 48.9342L82.4184 53.9443L81.9856 54.1939L81.7351 53.7606C79.9377 50.6475 77.3523 48.0627 74.2392 46.2653C71.1261 44.468 67.5949 43.5214 64.0001 43.5214C60.4053 43.5214 56.8735 44.4677 53.7603 46.2651L53.3275 46.5148L53.0778 46.082L48.0688 37.4063C43.5484 40.1143 39.7906 43.9321 37.1531 48.5003L36.9031 48.9333L26.9438 43.1833L27.1938 42.7503C30.8407 36.4338 36.0507 31.1651 42.319 27.4472L42.3175 27.444L43.1831 26.9447L43.1852 26.947C49.3936 23.4594 56.379 21.5877 63.4994 21.5038L63.5001 21.5008L64.4994 21.5004L64.4996 21.5039C71.787 21.5897 78.9335 23.5474 85.2499 27.1942L85.6829 27.4442L80.4315 36.54C84.9606 39.2501 88.7489 43.0394 91.4591 47.5684L100.123 42.5675L109.217 37.317L109.65 37.0674L109.899 37.5002Z" fill="url(#pattern0_393_409)"/>
<path d="M95.5001 118.56L90.2491 109.465C82.2684 114.072 73.2154 116.498 64.0001 116.498L64.0001 127" stroke="white" stroke-opacity="0.5"/>
<path d="M9.44049 95.5001L18.5356 90.2491C23.1432 98.2298 29.7705 104.857 37.7511 109.465" stroke="white" stroke-opacity="0.5"/>
<path d="M0.999966 64.0002L11.5021 64.0002" stroke="white" stroke-opacity="0.5"/>
<path d="M0.999998 64L11.5021 64C11.5021 54.7847 13.9278 45.7318 18.5355 37.7511" stroke="white" stroke-opacity="0.5"/>
<path d="M32.5 9.44042L37.751 18.5355C45.7317 13.9279 54.7847 11.5021 64 11.5021L64 1.00002" stroke="white" stroke-opacity="0.5"/>
<path d="M118.56 32.5L109.464 37.7511C104.857 29.7704 98.2296 23.1431 90.2489 18.5355" stroke="white" stroke-opacity="0.5"/>
<path d="M127 64.0002L116.498 64.0002" stroke="white" stroke-opacity="0.5"/>
<path d="M127 64.0002L116.498 64.0002C116.498 73.2155 114.072 82.2685 109.465 90.2491" stroke="white" stroke-opacity="0.5"/>
<path d="M64.0005 106C71.373 106 78.6157 104.059 85.0005 100.373" stroke="white" stroke-opacity="0.5"/>
<path d="M37.7505 109.466L43.0005 100.373C49.3853 104.059 56.628 106 64.0005 106" stroke="white" stroke-opacity="0.5"/>
<path d="M27.6274 85L18.5342 90.25C23.142 98.231 29.7695 104.858 37.7505 109.466L43.0005 100.373" stroke="white" stroke-opacity="0.5"/>
<path d="M18.5342 90.25L27.6274 85C23.9411 78.6152 22.0005 71.3725 22.0005 64" stroke="white" stroke-opacity="0.5"/>
<path d="M11.5005 64C11.5005 54.7843 13.9263 45.731 18.5342 37.75L27.6274 43" stroke="white" stroke-opacity="0.5"/>
<path d="M18.5342 37.75L27.6274 43C31.3137 36.6152 36.6157 31.3132 43.0005 27.6269" stroke="white" stroke-opacity="0.5"/>
<path d="M37.7505 18.5339C45.7315 13.9261 54.7848 11.5003 64.0005 11.5003L64.0005 22.0003" stroke="white" stroke-opacity="0.5"/>
<path d="M64.0005 11.5L64.0005 22C71.373 22 78.6157 23.9407 85.0005 27.627L90.2505 18.5337" stroke="white" stroke-opacity="0.5"/>
<path d="M109.467 37.75C104.859 29.769 98.2315 23.1415 90.2505 18.5337L85.0005 27.627" stroke="white" stroke-opacity="0.5"/>
<path d="M109.467 90.2503C114.075 82.2692 116.5 73.2159 116.5 64.0002L106 64.0002C106 71.3728 104.06 78.6155 100.374 85.0003" stroke="white" stroke-opacity="0.5"/>
<path d="M100.373 84.9997L91.2798 79.7497C88.5151 84.5384 84.5386 88.5148 79.75 91.2796L85 100.373" stroke="white" stroke-opacity="0.5"/>
<path d="M64 95.4997L64 106C71.3725 106 78.6152 104.059 85 100.373L79.75 91.2796" stroke="white" stroke-opacity="0.5"/>
<path d="M64 106C56.6275 106 49.3848 104.059 43 100.373L48.25 91.2798C53.0386 94.0445 58.4706 95.5 64 95.5L64 106Z" stroke="white" stroke-opacity="0.5"/>
<path d="M43 100.373L48.25 91.2798C43.4614 88.5151 39.4849 84.5386 36.7202 79.75" stroke="white" stroke-opacity="0.5"/>
<path d="M27.6269 84.9998C23.9407 78.6149 22 71.3723 22 63.9998M32.5 63.9998C32.5 69.5292 33.9555 74.9612 36.7202 79.7498" stroke="white" stroke-opacity="0.5"/>
<path d="M27.627 43L36.7202 48.25C33.9555 53.0386 32.5 58.4706 32.5 64" stroke="white" stroke-opacity="0.5"/>
<path d="M48.25 36.7202L43 27.6269C36.6152 31.3132 31.3132 36.6152 27.627 43L36.7202 48.25" stroke="white" stroke-opacity="0.5"/>
<path d="M64 22C71.3726 22 78.6152 23.9407 85 27.627L79.75 36.7202" stroke="white" stroke-opacity="0.5"/>
<path d="M106 63.9998C106 71.3723 104.059 78.615 100.373 84.9998L91.2798 79.7498C94.0445 74.9612 95.5 69.5292 95.5 63.9998" stroke="white" stroke-opacity="0.5"/>
<path d="M64 95.5001C58.4706 95.5001 53.0386 94.0446 48.25 91.2799L53.5105 82.1685" stroke="white" stroke-opacity="0.5"/>
<path d="M48.25 91.2798C43.4614 88.5151 39.4849 84.5386 36.7202 79.75L45.8317 74.4895C47.673 77.6787 50.3213 80.3271 53.5105 82.1684L48.25 91.2798Z" stroke="white" stroke-opacity="0.5"/>
<path d="M53.5104 45.8317C56.6996 43.9904 60.3173 43.0211 63.9999 43.0211" stroke="white" stroke-opacity="0.5"/>
<path d="M74.4894 45.8317C71.3002 43.9904 67.6825 43.021 63.9999 43.021" stroke="white" stroke-opacity="0.5"/>
<path d="M54.907 69.25C55.8285 70.8462 57.154 72.1717 58.7503 73.0933L53.5002 82.1865" stroke="white" stroke-opacity="0.5"/>
<path d="M58.75 73.0933C57.1538 72.1717 55.8283 70.8462 54.9067 69.25L64 64" stroke="white" stroke-opacity="0.5"/>
<path d="M84.9785 64H83.9785H84.9785ZM82.168 53.5107L83.034 53.0107V53.0107L82.168 53.5107ZM74.4893 45.832L74.9893 44.966V44.966L74.4893 45.832ZM64 43.0215V42.0215V43.0215ZM53.5107 45.832L53.0107 44.966V44.966L53.5107 45.832ZM45.832 53.5107L44.966 53.0107H44.966L45.832 53.5107ZM43.0215 64H42.0215V64H43.0215ZM45.832 74.4893L44.966 74.9893H44.966L45.832 74.4893ZM53.5107 82.168L53.0107 83.034V83.034L53.5107 82.168ZM64 84.9785V85.9785V85.9785V84.9785ZM74.4893 82.168L74.9893 83.034V83.034L74.4893 82.168ZM82.168 74.4893L83.034 74.9893V74.9893L82.168 74.4893ZM95.5 64H94.5H95.5ZM91.2803 79.75L92.1463 80.25L92.1463 80.25L91.2803 79.75ZM79.75 91.2803L80.25 92.1463L80.25 92.1463L79.75 91.2803ZM64 95.5V96.5V96.5V95.5ZM48.25 91.2803L47.75 92.1463L47.75 92.1463L48.25 91.2803ZM36.7197 79.75L35.8537 80.25L35.8537 80.25L36.7197 79.75ZM32.5 64H31.5V64H32.5ZM36.7197 48.25L35.8537 47.75L35.8537 47.75L36.7197 48.25ZM48.25 36.7197L47.75 35.8537L47.75 35.8537L48.25 36.7197ZM64 32.5V31.5V32.5ZM79.75 36.7197L80.25 35.8537L80.25 35.8537L79.75 36.7197ZM91.2803 48.25L92.1463 47.75L92.1463 47.75L91.2803 48.25ZM84.9785 64H85.9785C85.9785 60.1419 84.9631 56.352 83.034 53.0107L82.168 53.5107L81.3019 54.0107C83.0555 57.0479 83.9785 60.493 83.9785 64H84.9785ZM82.168 53.5107L83.034 53.0107C81.1049 49.6695 78.3305 46.8951 74.9893 44.966L74.4893 45.832L73.9893 46.6981C77.0264 48.4516 79.5484 50.9736 81.3019 54.0107L82.168 53.5107ZM74.4893 45.832L74.9893 44.966C71.648 43.0369 67.8581 42.0215 64 42.0215V43.0215V44.0215C67.507 44.0215 70.9521 44.9445 73.9893 46.6981L74.4893 45.832ZM64 43.0215V42.0215C60.1419 42.0215 56.352 43.0369 53.0107 44.966L53.5107 45.832L54.0107 46.6981C57.0479 44.9445 60.493 44.0215 64 44.0215V43.0215ZM53.5107 45.832L53.0107 44.966C49.6695 46.8951 46.8951 49.6695 44.966 53.0107L45.832 53.5107L46.6981 54.0107C48.4516 50.9735 50.9735 48.4516 54.0107 46.6981L53.5107 45.832ZM45.832 53.5107L44.966 53.0107C43.0369 56.352 42.0215 60.1419 42.0215 64H43.0215H44.0215C44.0215 60.493 44.9445 57.0479 46.6981 54.0107L45.832 53.5107ZM43.0215 64H42.0215C42.0215 67.8581 43.0369 71.648 44.966 74.9893L45.832 74.4893L46.6981 73.9893C44.9445 70.9521 44.0215 67.507 44.0215 64H43.0215ZM45.832 74.4893L44.966 74.9893C46.8951 78.3305 49.6695 81.1049 53.0107 83.034L53.5107 82.168L54.0107 81.3019C50.9736 79.5484 48.4516 77.0264 46.6981 73.9893L45.832 74.4893ZM53.5107 82.168L53.0107 83.034C56.352 84.9631 60.1419 85.9785 64 85.9785V84.9785V83.9785C60.493 83.9785 57.0479 83.0555 54.0107 81.3019L53.5107 82.168ZM64 84.9785V85.9785C67.8581 85.9785 71.648 84.9631 74.9893 83.034L74.4893 82.168L73.9893 81.3019C70.9521 83.0555 67.507 83.9785 64 83.9785V84.9785ZM74.4893 82.168L74.9893 83.034C78.3305 81.1049 81.1049 78.3305 83.034 74.9893L82.168 74.4893L81.3019 73.9893C79.5484 77.0265 77.0265 79.5484 73.9893 81.3019L74.4893 82.168ZM82.168 74.4893L83.034 74.9893C84.9631 71.648 85.9785 67.8581 85.9785 64H84.9785H83.9785C83.9785 67.507 83.0555 70.9521 81.3019 73.9893L82.168 74.4893ZM95.5 64H94.5C94.5 69.3538 93.0911 74.6135 90.4142 79.25L91.2803 79.75L92.1463 80.25C94.9987 75.3094 96.5 69.7048 96.5 64H95.5ZM91.2803 79.75L90.4142 79.25C87.7373 83.8866 83.8866 87.7373 79.25 90.4142L79.75 91.2803L80.25 92.1463C85.1906 89.2938 89.2938 85.1906 92.1463 80.25L91.2803 79.75ZM79.75 91.2803L79.25 90.4142C74.6135 93.0911 69.3538 94.5 64 94.5V95.5V96.5C69.7048 96.5 75.3094 94.9987 80.25 92.1463L79.75 91.2803ZM64 95.5V94.5C58.6462 94.5 53.3865 93.0911 48.75 90.4142L48.25 91.2803L47.75 92.1463C52.6906 94.9987 58.2952 96.5 64 96.5V95.5ZM48.25 91.2803L48.75 90.4142C44.1134 87.7373 40.2627 83.8866 37.5858 79.25L36.7197 79.75L35.8537 80.25C38.7062 85.1906 42.8094 89.2938 47.75 92.1463L48.25 91.2803ZM36.7197 79.75L37.5858 79.25C34.9089 74.6135 33.5 69.3538 33.5 64H32.5H31.5C31.5 69.7048 33.0013 75.3094 35.8537 80.25L36.7197 79.75ZM32.5 64H33.5C33.5 58.6462 34.9089 53.3865 37.5858 48.75L36.7197 48.25L35.8537 47.75C33.0013 52.6906 31.5 58.2952 31.5 64H32.5ZM36.7197 48.25L37.5858 48.75C40.2627 44.1134 44.1134 40.2627 48.75 37.5858L48.25 36.7197L47.75 35.8537C42.8094 38.7062 38.7062 42.8094 35.8537 47.75L36.7197 48.25ZM48.25 36.7197L48.75 37.5858C53.3865 34.9089 58.6462 33.5 64 33.5V32.5V31.5C58.2952 31.5 52.6906 33.0013 47.75 35.8537L48.25 36.7197ZM64 32.5V33.5C69.3538 33.5 74.6135 34.9089 79.25 37.5858L79.75 36.7197L80.25 35.8537C75.3094 33.0013 69.7048 31.5 64 31.5V32.5ZM79.75 36.7197L79.25 37.5858C83.8866 40.2627 87.7373 44.1134 90.4142 48.75L91.2803 48.25L92.1463 47.75C89.2938 42.8094 85.1906 38.7062 80.25 35.8537L79.75 36.7197ZM91.2803 48.25L90.4142 48.75C93.0911 53.3865 94.5 58.6462 94.5 64H95.5H96.5C96.5 58.2952 94.9987 52.6906 92.1463 47.75L91.2803 48.25Z" fill="white"/>
</g>
<defs>
<clipPath id="clip0_393_409">
<rect width="128" height="128" fill="white"/>
</clipPath>
<pattern id="pattern0_393_409" patternUnits="userSpaceOnUse" patternTransform="matrix(3.2424 1.872 -3.744 6.4848 50.2686 2.78369)" preserveAspectRatio="none" viewBox="0 0 12.48 24.96" width="1" height="1">
<use xlink:href="#pattern0_393_409_inner" transform="translate(-12.48 0)"/>
<g id="pattern0_393_409_inner">
<path d="M6 3C6 4.65685 4.65685 6 3 6C1.34315 6 0 4.65685 0 3C0 1.34315 1.34315 0 3 0C4.65685 0 6 1.34315 6 3Z" fill="white"/>
</g>
<use xlink:href="#pattern0_393_409_inner" transform="translate(-6.24 12.48)"/>
<use xlink:href="#pattern0_393_409_inner" transform="translate(6.24 12.48)"/>
</pattern></defs>
</svg>
