<svg width="128" height="128" viewBox="0 0 128 128" fill="none" xmlns="http://www.w3.org/2000/svg" xmlns:xlink="http://www.w3.org/1999/xlink">
<g clip-path="url(#clip0_393_409)">
<path d="M91.7129 80C88.9878 84.7201 85.1032 88.6629 80.4311 91.4587L80.433 91.4632L79.5674 91.9625L79.565 91.9589C74.9531 94.5263 69.7777 95.9131 64.5 95.9955L64.4997 95.9999L63.5004 96.0003L63.4998 95.9954C58.2223 95.9129 53.0468 94.5268 48.4351 91.9594L48.4331 91.9628L47.5671 91.4628L47.569 91.4594C42.8968 88.6637 39.0125 84.7202 36.2873 80.0001L36.0376 79.5673L36.4704 79.3176L45.5817 74.056L46.0145 73.8063L46.265 74.2396C48.0624 77.3527 50.6478 79.9376 53.7608 81.7349C56.874 83.5323 60.4052 84.4788 63.9999 84.4789C67.5946 84.4789 71.1266 83.5325 74.2397 81.7351L74.2638 81.7208C77.3658 79.924 79.9424 77.3441 81.735 74.2393L81.9859 73.8067L91.9629 79.567L91.7129 80Z" fill="url(#pattern0_393_409)"/>
<path d="M95.5001 118.56L90.2491 109.465C82.2684 114.072 73.2154 116.498 64.0001 116.498L64.0001 127" stroke="white" stroke-opacity="0.5"/>
<path d="M9.44049 95.5001L18.5356 90.2491C23.1432 98.2298 29.7705 104.857 37.7511 109.465" stroke="white" stroke-opacity="0.5"/>
<path d="M64.0005 106C71.373 106 78.6157 104.059 85.0005 100.373" stroke="white" stroke-opacity="0.5"/>
<path d="M37.7505 109.466L43.0005 100.373C49.3853 104.059 56.628 106 64.0005 106" stroke="white" stroke-opacity="0.5"/>
<path d="M27.6274 85L18.5342 90.25C23.142 98.231 29.7695 104.858 37.7505 109.466L43.0005 100.373" stroke="white" stroke-opacity="0.5"/>
<path d="M100.373 84.9997L91.2798 79.7497C88.5151 84.5384 84.5386 88.5148 79.75 91.2796L85 100.373" stroke="white" stroke-opacity="0.5"/>
<path d="M64 95.4997L64 106C71.3725 106 78.6152 104.059 85 100.373L79.75 91.2796" stroke="white" stroke-opacity="0.5"/>
<path d="M64 106C56.6275 106 49.3848 104.059 43 100.373L48.25 91.2798C53.0386 94.0445 58.4706 95.5 64 95.5L64 106Z" stroke="white" stroke-opacity="0.5"/>
<path d="M43 100.373L48.25 91.2798C43.4614 88.5151 39.4849 84.5386 36.7202 79.75" stroke="white" stroke-opacity="0.5"/>
<path d="M64 95.5001C58.4706 95.5001 53.0386 94.0446 48.25 91.2799L53.5105 82.1685" stroke="white" stroke-opacity="0.5"/>
<path d="M48.25 91.2798C43.4614 88.5151 39.4849 84.5386 36.7202 79.75L45.8317 74.4895C47.673 77.6787 50.3213 80.3271 53.5105 82.1684L48.25 91.2798Z" stroke="white" stroke-opacity="0.5"/>
<path d="M91.2803 79.75L92.1463 80.25L92.6463 79.384L91.7803 78.884L91.2803 79.75ZM79.75 91.2803L80.25 92.1463L80.25 92.1463L79.75 91.2803ZM64 95.5V96.5V96.5V95.5ZM48.25 91.2803L47.75 92.1463L47.75 92.1463L48.25 91.2803ZM36.7197 79.75L36.2197 78.884L35.3537 79.384L35.8537 80.25L36.7197 79.75ZM45.832 74.4893L46.6981 73.9893L46.1981 73.1232L45.332 73.6232L45.832 74.4893ZM53.5107 82.168L53.0107 83.034V83.034L53.5107 82.168ZM64 84.9785V85.9785V85.9785V84.9785ZM74.4893 82.168L74.9893 83.034V83.034L74.4893 82.168ZM82.168 74.4893L82.6679 73.6232L81.8019 73.1232L81.3019 73.9893L82.168 74.4893ZM64 32.5V31.5V32.5ZM79.75 36.7197L80.616 37.2197L81.116 36.3537L80.25 35.8537L79.75 36.7197ZM74.4893 45.832L73.9893 46.6981L74.8553 47.1981L75.3553 46.332L74.4893 45.832ZM64 43.0215V42.0215V43.0215ZM53.5107 45.832L52.6447 46.332L53.1447 47.1981L54.0107 46.6981L53.5107 45.832ZM48.25 36.7197L47.75 35.8537L46.884 36.3537L47.384 37.2197L48.25 36.7197ZM91.2803 79.75L90.4142 79.25C87.7373 83.8866 83.8866 87.7373 79.25 90.4142L79.75 91.2803L80.25 92.1463C85.1906 89.2938 89.2938 85.1906 92.1463 80.25L91.2803 79.75ZM79.75 91.2803L79.25 90.4142C74.6135 93.0911 69.3538 94.5 64 94.5V95.5V96.5C69.7048 96.5 75.3094 94.9987 80.25 92.1463L79.75 91.2803ZM64 95.5V94.5C58.6462 94.5 53.3865 93.0911 48.75 90.4142L48.25 91.2803L47.75 92.1463C52.6906 94.9987 58.2952 96.5 64 96.5V95.5ZM48.25 91.2803L48.75 90.4142C44.1134 87.7373 40.2627 83.8866 37.5858 79.25L36.7197 79.75L35.8537 80.25C38.7062 85.1906 42.8094 89.2938 47.75 92.1463L48.25 91.2803ZM36.7197 79.75L37.2197 80.616L46.332 75.3553L45.832 74.4893L45.332 73.6232L36.2197 78.884L36.7197 79.75ZM45.832 74.4893L44.966 74.9893C46.8951 78.3305 49.6695 81.1049 53.0107 83.034L53.5107 82.168L54.0107 81.3019C50.9736 79.5484 48.4516 77.0264 46.6981 73.9893L45.832 74.4893ZM53.5107 82.168L53.0107 83.034C56.352 84.9631 60.1419 85.9785 64 85.9785V84.9785V83.9785C60.493 83.9785 57.0479 83.0555 54.0107 81.3019L53.5107 82.168ZM64 84.9785V85.9785C67.8581 85.9785 71.648 84.9631 74.9893 83.034L74.4893 82.168L73.9893 81.3019C70.9521 83.0555 67.507 83.9785 64 83.9785V84.9785ZM74.4893 82.168L74.9893 83.034C78.3305 81.1049 81.1049 78.3305 83.034 74.9893L82.168 74.4893L81.3019 73.9893C79.5484 77.0265 77.0265 79.5484 73.9893 81.3019L74.4893 82.168ZM82.168 74.4893L81.668 75.3553L90.7803 80.616L91.2803 79.75L91.7803 78.884L82.6679 73.6232L82.168 74.4893ZM64 32.5V33.5C69.3538 33.5 74.6135 34.9089 79.25 37.5858L79.75 36.7197L80.25 35.8537C75.3094 33.0013 69.7048 31.5 64 31.5V32.5ZM79.75 36.7197L78.884 36.2197L73.6232 45.332L74.4893 45.832L75.3553 46.332L80.616 37.2197L79.75 36.7197ZM74.4893 45.832L74.9893 44.966C71.648 43.0369 67.8581 42.0215 64 42.0215V43.0215V44.0215C67.507 44.0215 70.9521 44.9445 73.9893 46.6981L74.4893 45.832ZM64 43.0215V42.0215C60.1419 42.0215 56.352 43.0369 53.0107 44.966L53.5107 45.832L54.0107 46.6981C57.0479 44.9445 60.493 44.0215 64 44.0215V43.0215ZM53.5107 45.832L54.3768 45.332L49.116 36.2197L48.25 36.7197L47.384 37.2197L52.6447 46.332L53.5107 45.832ZM48.25 36.7197L48.75 37.5858C53.3865 34.9089 58.6462 33.5 64 33.5V32.5V31.5C58.2952 31.5 52.6906 33.0013 47.75 35.8537L48.25 36.7197Z" fill="white"/>
</g>
<defs>
<clipPath id="clip0_393_409">
<rect width="128" height="128" fill="white"/>
</clipPath>
<pattern id="pattern0_393_409" patternUnits="userSpaceOnUse" patternTransform="matrix(6.60951 3.816 -7.632 13.219 50.019 55.3507)" preserveAspectRatio="none" viewBox="0 0 9.54 19.08" width="1" height="1">
<use xlink:href="#pattern0_393_409_inner" transform="translate(-9.54 0)"/>
<g id="pattern0_393_409_inner">
<path d="M6 3C6 4.65685 4.65685 6 3 6C1.34315 6 0 4.65685 0 3C0 1.34315 1.34315 0 3 0C4.65685 0 6 1.34315 6 3Z" fill="white"/>
</g>
<use xlink:href="#pattern0_393_409_inner" transform="translate(-4.77 9.54)"/>
<use xlink:href="#pattern0_393_409_inner" transform="translate(4.77 9.54)"/>
</pattern></defs>
</svg>
